<svg xmlns="http://www.w3.org/2000/svg" xmlns:xlink="http://www.w3.org/1999/xlink" width="45" height="42.88" viewBox="0 0 45 42.88">
  <defs>
    <clipPath id="clip-icon_line">
      <rect width="45" height="42.88"/>
    </clipPath>
  </defs>
  <g id="icon_line" clip-path="url(#clip-icon_line)">
    <path id="パス_53" data-name="パス 53" d="M150.2,414.008c0-10.068-10.094-18.259-22.5-18.259s-22.5,8.191-22.5,18.259c0,9.026,8,16.585,18.817,18.014.733.158,1.73.483,1.982,1.11a4.617,4.617,0,0,1,.073,2.034s-.264,1.588-.321,1.926c-.1.569-.452,2.225,1.949,1.213s12.958-7.63,17.678-13.064h0C148.636,421.666,150.2,418.037,150.2,414.008Zm-30.438,5.375a.438.438,0,0,1-.438.438h-6.305a.435.435,0,0,1-.3-.122l-.007-.006-.006-.007a.436.436,0,0,1-.123-.3h0v-9.8a.438.438,0,0,1,.438-.438H114.6a.438.438,0,0,1,.438.438v7.786h4.288a.438.438,0,0,1,.438.438Zm3.805,0a.438.438,0,0,1-.438.437h-1.578a.438.438,0,0,1-.438-.437v-9.8a.438.438,0,0,1,.438-.438h1.578a.438.438,0,0,1,.438.438Zm10.862,0a.437.437,0,0,1-.438.437h-1.578a.425.425,0,0,1-.112-.015l-.006,0-.03-.009-.013-.005-.021-.009-.021-.01-.012-.007-.027-.016,0,0a.434.434,0,0,1-.111-.108l-4.5-6.075v5.822a.438.438,0,0,1-.439.437h-1.578a.438.438,0,0,1-.438-.437v-9.8a.438.438,0,0,1,.438-.438h1.616l.023,0,.019,0,.025.006.015,0,.026.009.014.005.025.01.014.007.024.013.013.008.023.016.011.009a.227.227,0,0,1,.024.02l.008.007.026.027,0,0a.465.465,0,0,1,.035.044l4.493,6.067V409.58a.438.438,0,0,1,.438-.438h1.578a.438.438,0,0,1,.438.438Zm8.715-8.225a.437.437,0,0,1-.438.438h-4.288v1.657H142.7a.438.438,0,0,1,.438.438v1.578a.438.438,0,0,1-.438.438h-4.288v1.657H142.7a.438.438,0,0,1,.438.438v1.578a.438.438,0,0,1-.438.438H136.4a.434.434,0,0,1-.3-.122l-.007-.006-.006-.007a.436.436,0,0,1-.123-.3h0v-9.8h0a.436.436,0,0,1,.122-.3l.007-.008.005,0a.437.437,0,0,1,.3-.124H142.7a.438.438,0,0,1,.438.439Z" transform="translate(-105.198 -395.749)" fill="#fff"/>
  </g>
</svg>
