<svg xmlns="http://www.w3.org/2000/svg" width="11.671" height="11.672" viewBox="0 0 11.671 11.672">
  <g id="icons_Q2" data-name="icons Q2" transform="translate(-4 -4)">
    <path id="パス_103" data-name="パス 103" d="M25.182,4a.584.584,0,0,0-.584.671.613.613,0,0,0,.613.5h2.655L24.219,8.814a.584.584,0,0,0-.058.817.525.525,0,0,0,.438.2.584.584,0,0,0,.408-.175l3.676-3.676V8.639a.613.613,0,0,0,.5.613.584.584,0,0,0,.671-.584V4.583A.584.584,0,0,0,29.267,4Z" transform="translate(-14.179 0)" fill="#fff"/>
    <path id="パス_104" data-name="パス 104" d="M15,11.586a.613.613,0,0,0-.5.613V14.5H5.167V5.167H7.5A.584.584,0,0,0,8.085,4.5.613.613,0,0,0,7.472,4H4.584A.584.584,0,0,0,4,4.583v10.5a.584.584,0,0,0,.584.584h10.5a.584.584,0,0,0,.584-.584V12.17A.584.584,0,0,0,15,11.586Z" transform="translate(0 0)" fill="#fff"/>
  </g>
</svg>
