<svg xmlns="http://www.w3.org/2000/svg" xmlns:xlink="http://www.w3.org/1999/xlink" width="27.666" height="32.996" viewBox="0 0 27.666 32.996">
  <defs>
    <clipPath id="clip-icon_pdf_red">
      <rect width="27.666" height="32.996"/>
    </clipPath>
  </defs>
  <g id="icon_pdf_red" clip-path="url(#clip-icon_pdf_red)">
    <g id="PDFファイルアイコン2" transform="translate(-41.353)">
      <path id="パス_37653" data-name="パス 37653" d="M170.769,230.728a15.444,15.444,0,0,0-3.146.292,14.183,14.183,0,0,1-1.891-2.517c1.552-4.462.569-5.73-.754-5.73-1.039,0-1.557,1.1-1.442,2.307a11.386,11.386,0,0,0,1.21,3.108,35.12,35.12,0,0,1-1.776,4.013,15.9,15.9,0,0,0-2,.749c-2.479,1.153-2.678,2.692-2.162,3.344.979,1.239,3.066.17,5.16-3.575,1.433-.408,3.319-.951,3.489-.951a.277.277,0,0,1,.078.016c1.045.921,2.279,1.977,3.295,2.115a1.811,1.811,0,0,0,2.249-1.527C173.022,231.712,172.635,230.84,170.769,230.728Zm-9.279,4.039c-.606.72-1.586,1.411-1.932,1.182s-.4-.893.375-1.643a6.517,6.517,0,0,1,2.277-1.211c.231-.086.289,0,.289.115A5.733,5.733,0,0,1,161.49,234.768Zm2.653-9.687c-.058-.721.086-1.413.692-1.5s.894.6.663,1.729a9.253,9.253,0,0,1-.462,1.962c-.115.086-.23-.2-.23-.2A5.961,5.961,0,0,1,164.143,225.081Zm.231,6.775c.317-.52,1.124-2.623,1.124-2.623.173.317,1.527,1.931,1.527,1.931S164.95,231.625,164.374,231.856Zm6.283.921a7.652,7.652,0,0,1-2.334-1.153,6.936,6.936,0,0,1,2.306-.288c.894.058,1.211.433,1.211.807S171.523,232.893,170.657,232.777Z" transform="translate(-109.671 -208.417)" fill="#e43c00"/>
      <path id="パス_37654" data-name="パス 37654" d="M68.419,6.938,62.081.6l-.6-.6H47.707a5.541,5.541,0,0,0-5.534,5.536v.423h-.819V12.58h.819V27.46A5.541,5.541,0,0,0,47.707,33H63.484a5.541,5.541,0,0,0,5.535-5.535V7.539ZM63.483,30.946H47.707a3.485,3.485,0,0,1-3.486-3.486V12.58H54.359V5.959H44.221V5.536a3.486,3.486,0,0,1,3.486-3.487H60.141V5.974a2.905,2.905,0,0,0,2.905,2.9H66.97V27.46A3.486,3.486,0,0,1,63.483,30.946ZM44.365,10.7V7.639a.1.1,0,0,1,.1-.1h.974a1.2,1.2,0,0,1,.441.078,1.046,1.046,0,0,1,.341.214.909.909,0,0,1,.221.33,1.082,1.082,0,0,1,.076.406,1.069,1.069,0,0,1-.077.408.945.945,0,0,1-.22.326,1,1,0,0,1-.343.215,1.226,1.226,0,0,1-.44.076h-.411V10.7a.1.1,0,0,1-.1.1h-.465A.1.1,0,0,1,44.365,10.7Zm3,0V7.639a.1.1,0,0,1,.1-.1h1.076a1.324,1.324,0,0,1,.536.1,1.108,1.108,0,0,1,.409.323.956.956,0,0,1,.144.252,1.48,1.48,0,0,1,.077.284,2.392,2.392,0,0,1,.029.319c0,.109,0,.227,0,.351s0,.241,0,.351a2.413,2.413,0,0,1-.029.32,1.472,1.472,0,0,1-.077.283.953.953,0,0,1-.144.252,1.1,1.1,0,0,1-.409.323,1.316,1.316,0,0,1-.536.1H47.466A.1.1,0,0,1,47.368,10.7ZM52.5,8.892a.1.1,0,0,1,.1.1v.418a.1.1,0,0,1-.1.1H51.321v1.2a.1.1,0,0,1-.1.1h-.465a.1.1,0,0,1-.1-.1V7.639a.1.1,0,0,1,.1-.1H52.54a.1.1,0,0,1,.1.1v.418a.1.1,0,0,1-.1.1H51.321v.738H52.5Z" fill="#e43c00"/>
      <path id="パス_37655" data-name="パス 37655" d="M99.059,127.256a.461.461,0,0,0,0-.612.47.47,0,0,0-.329-.108h-.385v.828h.385A.47.47,0,0,0,99.059,127.256Z" transform="translate(-53.319 -118.381)" fill="#e43c00"/>
      <path id="パス_37656" data-name="パス 37656" d="M145.663,128.468a.476.476,0,0,0,.192-.135.519.519,0,0,0,.114-.291,6.143,6.143,0,0,0,0-1.1.52.52,0,0,0-.114-.291.479.479,0,0,0-.192-.135.725.725,0,0,0-.26-.044h-.462v2.042h.462A.732.732,0,0,0,145.663,128.468Z" transform="translate(-96.912 -118.319)" fill="#e43c00"/>
    </g>
  </g>
</svg>
