<svg id="グループ_68" data-name="グループ 68" xmlns="http://www.w3.org/2000/svg" width="40.991" height="40.517" viewBox="0 0 40.991 40.517">
  <g id="グループ_69" data-name="グループ 69" transform="translate(0)">
    <path id="パス_212" data-name="パス 212" d="M4.885,23.959a.833.833,0,0,0,.589-1.423L2.846,19.909h9.73a.833.833,0,1,0,0-1.667H2.846l2.629-2.629A.833.833,0,1,0,4.3,14.434L.244,18.486a.833.833,0,0,0,0,1.179L4.3,23.715a.83.83,0,0,0,.589.244" transform="translate(0 -14.19)" fill="#fff"/>
    <path id="パス_218" data-name="パス 218" d="M8.525,23.959a.833.833,0,0,1-.589-1.423l2.628-2.628H.833a.833.833,0,1,1,0-1.667h9.73L7.935,15.613a.833.833,0,0,1,1.179-1.179l4.052,4.052a.833.833,0,0,1,0,1.179L9.114,23.715a.83.83,0,0,1-.589.244" transform="translate(27.581 -14.19)" fill="#fff"/>
    <path id="パス_214" data-name="パス 214" d="M227.343,121.084h0a.578.578,0,0,0,.578-.577l0-2.759a3.326,3.326,0,0,0-3.324-3.33H224.6a3.337,3.337,0,0,0-.941.136.578.578,0,1,0,.326,1.109,2.179,2.179,0,0,1,.615-.089h0a2.17,2.17,0,0,1,2.169,2.172l0,2.759a.578.578,0,0,0,.577.579" transform="translate(-198.934 -101.893)" fill="#fff"/>
    <path id="パス_215" data-name="パス 215" d="M289.347,147.394h0a.578.578,0,0,0,.578-.577l0-2.222a3.325,3.325,0,0,0-3.323-3.331H286.6a3.309,3.309,0,0,0-1.1.187.578.578,0,1,0,.384,1.091,2.156,2.156,0,0,1,.717-.121h0a2.169,2.169,0,0,1,2.168,2.173l0,2.222a.578.578,0,0,0,.577.579" transform="translate(-255.442 -126.412)" fill="#fff"/>
    <path id="パス_216" data-name="パス 216" d="M53.205,17.059h0a.578.578,0,0,0,.578-.577C53.79,11.2,53.8,3.575,53.8,3.575,53.8,1.474,52.491,0,50.615,0h0a3,3,0,0,0-2.367,1.086,3.9,3.9,0,0,0-.817,2.483s-.014,11.957-.018,16.307c-3.658-3.5-6.1-3.341-7.027-3.084a2.336,2.336,0,0,0-1.749,1.729,2.408,2.408,0,0,0,.939,2.352c3.03,2.484,4.029,4.394,5.32,8.528a10.653,10.653,0,0,0,4.56,5.562,3.734,3.734,0,0,1,1.084,2.37.578.578,0,0,0,.577.579h0a.578.578,0,0,0,.578-.577,4.73,4.73,0,0,0-1.615-3.345A9.519,9.519,0,0,1,46,29.056c-1.307-4.183-2.387-6.368-5.691-9.077a1.266,1.266,0,0,1-.541-1.219,1.192,1.192,0,0,1,.926-.854c.628-.174,2.983-.416,6.872,3.774a.578.578,0,0,0,1-.393c0-1.712.019-17.717.019-17.718a2.752,2.752,0,0,1,.553-1.75,1.841,1.841,0,0,1,1.474-.664h0c1.5,0,2.027,1.3,2.026,2.418,0,0-.006,7.62-.012,12.906a.578.578,0,0,0,.577.579" transform="translate(-30.293 2.604)" fill="#fff"/>
    <path id="パス_217" data-name="パス 217" d="M349.58,172.539a3.221,3.221,0,0,0-1.162.193.578.578,0,0,0,.4,1.086,2.028,2.028,0,0,1,.744-.123c1.487.026,2.178,1.773,2.177,2.946l-.005,4.573A24.586,24.586,0,0,1,350.2,187.6a19.5,19.5,0,0,0-1.236,4.938c0,.826,0,1.651,0,2.373a.578.578,0,0,0,.578.577h0a.578.578,0,0,0,.578-.579c0-.721,0-1.545,0-2.373a19.666,19.666,0,0,1,1.179-4.577,25.207,25.207,0,0,0,1.593-6.748l.005-4.572c0-1.989-1.237-4.067-3.312-4.1" transform="translate(-312.913 -154.974)" fill="#fff"/>
  </g>
</svg>
