<svg xmlns="http://www.w3.org/2000/svg" width="30.99" height="32.7"><defs><clipPath id="a"><path d="M0 0h30.99v32.7H0z"/></clipPath></defs><g data-name="コーリングアイコン (2)" fill="#fff" clip-path="url(#a)"><path data-name="パス 152" d="M10.175 11.254a1.613 1.613 0 0 0 0-2.282L5.837 4.635a1.614 1.614 0 0 0-2.282 0L2.113 6.074l6.62 6.62Z"/><path data-name="パス 153" d="M17.348 24.63a36.394 36.394 0 0 1-4.959-4.318 36.361 36.361 0 0 1-4.318-4.96 1.61 1.61 0 0 1-.084-1.848l-6.651-6.65-.4.4c-2.773 2.773.894 11.271 7.067 17.444s14.671 9.84 17.444 7.067l.4-.4-6.651-6.65a1.613 1.613 0 0 1-1.848-.085Z"/><path data-name="パス 154" d="M23.729 22.526a1.615 1.615 0 0 0-2.283 0l-1.439 1.439 6.62 6.62 1.439-1.438a1.613 1.613 0 0 0 0-2.282Z"/><path data-name="パス 155" d="m21.52 14.09 1.3-.206a6.885 6.885 0 0 0-5.709-5.709l-.207 1.3a5.572 5.572 0 0 1 4.617 4.617Z"/><path data-name="パス 156" d="m17.755 4.084-.2 1.3a9.684 9.684 0 0 1 8.06 8.059l1.3-.2a11 11 0 0 0-9.155-9.155Z"/><path data-name="パス 157" d="M26.742 4.252A15.093 15.093 0 0 0 18.399 0l-.2 1.3a13.84 13.84 0 0 1 11.5 11.5l1.3-.2a15.094 15.094 0 0 0-4.257-8.348Z"/></g></svg>